<?xml version="1.0" encoding="UTF-8" standalone="no"?>
<svg
   xmlns:dc="http://purl.org/dc/elements/1.1/"
   xmlns:cc="http://creativecommons.org/ns#"
   xmlns:rdf="http://www.w3.org/1999/02/22-rdf-syntax-ns#"
   xmlns:svg="http://www.w3.org/2000/svg"
   xmlns="http://www.w3.org/2000/svg"
   version="1.1"
   id="svg2"
   viewBox="0 0 410 410.00001"
   height="410"
   width="410">
  <defs
     id="defs4">
    <clipPath
       clipPathUnits="userSpaceOnUse"
       id="clipPath3354">
      <path
         d="m 31.514,559.43 17.173,0 0,15.796 -17.173,0 0,-15.796 z"
         id="path3356" />
    </clipPath>
  </defs>
  <metadata
     id="metadata7">
    <rdf:RDF>
      <cc:Work
         rdf:about="">
        <dc:format>image/svg+xml</dc:format>
        <dc:type
           rdf:resource="http://purl.org/dc/dcmitype/StillImage" />
        <dc:title></dc:title>
      </cc:Work>
    </rdf:RDF>
  </metadata>
  <g
     transform="translate(0,-642.36216)"
     id="layer1">
    <g
       transform="matrix(17.318266,0,0,-17.318266,-489.47755,10672.499)"
       id="g3350">
      <g
         clip-path="url(#clipPath3354)"
         id="g3352">
        <g
           transform="matrix(0.3800049,0,0,-0.377243,37.296463,570.30768)"
           id="g3358">
          <g
             transform="translate(-12.256,18.3694)"
             id="g3360">
            <path
               id="path3362"
               style="fill:#0073b8;fill-opacity:1;fill-rule:nonzero;stroke:none"
               d="m 0,0 c 0,-4.228 3.426,-7.656 7.65,-7.656 4.225,0 7.651,3.428 7.651,7.656 0,4.232 -3.426,7.66 -7.651,7.66 C 3.426,7.66 0,4.232 0,0" />
          </g>
        </g>
        <g
           transform="matrix(0.3800049,0,0,-0.377243,37.296463,570.30768)"
           id="g3364">
          <g
             transform="translate(12.2577,-12.2262)"
             id="g3366">
            <path
               id="path3368"
               style="fill:#000000;fill-opacity:1;fill-rule:nonzero;stroke:none"
               d="M 0,0 C 0.434,0.621 0.775,1.275 0.775,2.053 0.65,3.139 -0.061,4.354 -1.213,4.602 -2.018,4.756 -2.764,4.756 -3.51,4.289 -4.16,3.855 -4.627,3.109 -4.781,2.363 -4.875,1.494 -4.688,0.746 -4.193,0.125 -3.229,-1.119 -1.088,-1.086 0,0" />
          </g>
        </g>
        <g
           transform="matrix(0.3800049,0,0,-0.377243,37.296463,570.30768)"
           id="g3370">
          <g
             transform="translate(26.3788,20.848)"
             id="g3372">
            <path
               id="path3374"
               style="fill:#000000;fill-opacity:1;fill-rule:nonzero;stroke:none"
               d="m 0,0 c -1.088,2.703 -3.939,4.506 -6.83,4.537 -2.914,0.031 -5.68,-1.678 -6.891,-4.351 -1.148,-2.643 -0.804,-6.061 1.211,-8.176 1.801,-1.926 4.131,-2.672 6.768,-2.391 2.08,0.34 4.037,1.522 5.248,3.481 C 0.682,-5.037 0.963,-2.084 0,0 m -16.729,-7.99 c -1.398,-1.43 -2.453,-3.358 -3.755,-5.004 1.611,-0.123 3.38,-0.031 4.966,-0.061 -0.343,1.707 -0.839,3.356 -1.211,5.065 m 20.114,2.674 c -0.653,-3.45 -3.819,-6.963 -7.264,-7.801 -2.67,-0.903 -5.93,-0.342 -8.256,0.777 0.123,-1.025 0.59,-2.053 0.311,-3.078 -0.281,-0.496 -0.776,-0.994 -1.336,-1.088 -2.858,-0.25 -5.742,0.188 -8.533,-0.125 1.115,-2.363 2.046,-4.785 3.379,-7.023 l 7.203,6.713 0.902,0.185 c 0.494,-0.154 1.115,-0.402 1.332,-0.961 0.25,-0.498 0.125,-1.15 -0.123,-1.617 l -8.35,-8.051 c -0.931,-0.777 -2.578,-0.777 -3.416,0.248 l -5.027,10.631 c -0.248,0.559 -0.373,1.307 -0.123,1.928 2.793,3.885 5.648,7.771 8.35,11.685 0,1.213 0.216,2.332 0.587,3.389 1.055,3.449 4.627,6.373 8.102,6.961 C -5.4,8.02 -2.203,7.117 0.248,4.848 3.135,2.268 4.066,-1.523 3.385,-5.316" />
          </g>
        </g>
        <g
           transform="matrix(0.3800049,0,0,-0.377243,37.296463,570.30768)"
           id="g3376">
          <g
             transform="translate(-6.7092,25.5727)"
             id="g3378">
            <path
               id="path3380"
               style="fill:#000000;fill-opacity:1;fill-rule:nonzero;stroke:none"
               d="m 0,0 c -2.547,-0.654 -4.998,-3.295 -5.338,-5.938 -0.527,-3.234 0.901,-6.308 3.756,-7.925 2.359,-1.368 5.926,-1.151 8.039,0.558 1.859,1.492 3.289,3.543 2.947,5.875 l -2.357,0.063 c 1.363,1.367 2.762,2.642 4.221,3.853 1.271,-1.275 2.607,-2.674 3.755,-3.978 -0.837,0.031 -1.582,0.156 -2.359,-0.063 -0.031,-1.925 -0.588,-3.605 -1.49,-5.16 -1.397,-2.268 -3.694,-4.008 -6.115,-4.693 -4.5,-1.242 -9.125,0.373 -11.827,4.289 -1.892,2.83 -2.357,7.119 -0.806,10.228 1.554,3.324 4.933,5.905 8.599,6.153 L 16.049,3.137 C 16.141,2.176 16.109,1.211 15.984,0.188 11.02,0.029 5.121,0.684 0,0" />
          </g>
        </g>
      </g>
    </g>
    <path
       id="path3382"
       style="fill:none;stroke:#000000;stroke-width:13.8546133;stroke-linecap:butt;stroke-linejoin:miter;stroke-miterlimit:4;stroke-dasharray:none;stroke-opacity:1"
       d="m 11.927307,1040.4348 386.145383,0 0,-386.14531 -386.145383,0 0,386.14531 z" />
  </g>
</svg>
